<?xml version="1.0" encoding="utf-8"?>
<!-- Generator: Adobe Illustrator 25.0.1, SVG Export Plug-In . SVG Version: 6.00 Build 0)  -->
<svg version="1.1" id="Vrstva_1" xmlns="http://www.w3.org/2000/svg" xmlns:xlink="http://www.w3.org/1999/xlink" x="0px" y="0px"
	 viewBox="0 0 100 100" style="enable-background:new 0 0 100 100;" xml:space="preserve">
<style type="text/css">
	.st0{fill:none;stroke:#000000;stroke-width:3.3997;stroke-linecap:round;stroke-linejoin:round;stroke-miterlimit:10;}
	.st1{fill:none;stroke:#000000;stroke-width:3.3997;stroke-linejoin:round;stroke-miterlimit:10;}
	.st2{stroke:#000000;stroke-width:3.3997;stroke-linejoin:round;stroke-miterlimit:10;}
	.st3{fill:none;stroke:#000000;stroke-width:3.7235;stroke-linejoin:round;stroke-miterlimit:10;}
	.st4{fill:none;stroke:#000000;stroke-width:4.5329;stroke-linejoin:round;stroke-miterlimit:10;}
	.st5{fill:none;stroke:#000000;stroke-width:2.914;stroke-linejoin:round;stroke-miterlimit:10;}
</style>
<path class="st0" d="M20.68,92.41l71.78-71.05c4.23-4.18,4.25-11.01,0.04-15.22l0,0c-4.19-4.19-10.98-4.19-15.17,0L6.11,77.36
	L20.68,92.41z"/>
<polyline class="st1" points="6.11,77.36 2,96.24 20.68,92.41 "/>
<rect x="83.61" y="3.93" transform="matrix(0.7071 -0.7071 0.7071 0.7071 15.0762 63.9075)" class="st2" width="2.15" height="19.66"/>
<rect x="44.32" y="10.19" transform="matrix(0.7071 0.7071 -0.7071 0.7071 51.0704 -15.9153)" class="st2" width="0.86" height="87"/>
<line class="st3" x1="18.56" y1="15.76" x2="23.47" y2="10.85"/>
<line class="st3" x1="24.24" y1="21.65" x2="29.25" y2="16.64"/>
<line class="st3" x1="28.4" y1="28.76" x2="34.26" y2="22.9"/>
<g>
	<polyline class="st4" points="29.36,42.8 2.58,16.03 15.61,3 23.06,10.45 42.39,29.77 	"/>
	<line class="st3" x1="36.04" y1="33.48" x2="41.07" y2="28.45"/>
</g>
<g>
	<polyline class="st4" points="55.35,68.79 82.97,96.42 96,83.39 88.55,75.94 68.38,55.76 	"/>
	<line class="st3" x1="63.07" y1="63.7" x2="69.66" y2="57.12"/>
</g>
<circle class="st5" cx="81.13" cy="82.01" r="3.55"/>
</svg>
