<?xml version="1.0" encoding="utf-8"?>
<!-- Generator: Adobe Illustrator 25.0.1, SVG Export Plug-In . SVG Version: 6.00 Build 0)  -->
<svg version="1.1" id="Vrstva_1" xmlns="http://www.w3.org/2000/svg" xmlns:xlink="http://www.w3.org/1999/xlink" x="0px" y="0px"
	 viewBox="0 0 100 100" style="enable-background:new 0 0 100 100;" xml:space="preserve">
<style type="text/css">
	.st0{fill:none;stroke:#000000;stroke-width:2.0506;stroke-linejoin:round;stroke-miterlimit:10;}
	.st1{fill:none;stroke:#000000;stroke-width:1.6661;stroke-linecap:round;stroke-linejoin:round;stroke-miterlimit:10;}
	.st2{fill:none;stroke:#000000;stroke-width:2.0506;stroke-linecap:round;stroke-linejoin:round;stroke-miterlimit:10;}
	.st3{fill:none;stroke:#000000;stroke-width:1.9225;stroke-linejoin:round;stroke-miterlimit:10;}
	.st4{fill:none;stroke:#000000;stroke-width:1.9225;stroke-linecap:round;stroke-linejoin:round;stroke-miterlimit:10;}
	.st5{fill:none;stroke:#000000;stroke-width:1.2817;stroke-linecap:round;stroke-linejoin:round;stroke-miterlimit:10;}
</style>
<path class="st0" d="M6.87,89.23V36.08c0-9.6,6.29-18.16,15.53-20.79c0.14-0.04,0.28-0.08,0.42-0.12
	c8.49-2.24,18.09,1.23,23.65,8.22"/>
<path class="st1" d="M34.26,35.91h24.75v-0.29c0-6.75-5.47-12.23-12.23-12.23h0C39.87,23.39,34.26,29,34.26,35.91L34.26,35.91z"/>
<path class="st2" d="M17.75,81.73h-0.85c-2.03,0-3.67-1.64-3.67-3.67V60.19c0-2.03,1.64-3.67,3.67-3.67h0.85
	c2.03,0,3.67,1.64,3.67,3.67v17.88C21.42,80.09,19.78,81.73,17.75,81.73z"/>
<line class="st2" x1="1.49" y1="89.63" x2="12.47" y2="89.63"/>
<circle class="st3" cx="6.87" cy="51.01" r="1.93"/>
<path class="st4" d="M21.42,55.42c0,0-1.17-7.6,4.72-7.82h26.23c1.84,0,3.33,1.49,3.33,3.33v24.09H21.42"/>
<line class="st3" x1="21.42" y1="68.59" x2="55.71" y2="68.59"/>
<line class="st3" x1="55.71" y1="81.58" x2="18.81" y2="81.58"/>
<path class="st4" d="M21.77,81.58l-1.83,6.97c-0.09,0.34,0.17,0.68,0.52,0.68h0.7c0.16,0,0.65-0.01,0.76-0.14l5.63-7.36"/>
<path class="st2" d="M93.48,81.73h0.85c2.03,0,3.67-1.64,3.67-3.67V60.19c0-2.03-1.64-3.67-3.67-3.67h-0.85
	c-2.03,0-3.67,1.64-3.67,3.67v17.88C89.81,80.09,91.46,81.73,93.48,81.73z"/>
<path class="st4" d="M89.94,55.42c0,0,1.17-7.6-4.72-7.82H58.99c-1.84,0-3.33,1.49-3.33,3.33v24.09h34.28"/>
<line class="st3" x1="89.81" y1="68.59" x2="55.53" y2="68.59"/>
<line class="st3" x1="55.53" y1="81.58" x2="92.43" y2="81.58"/>
<path class="st4" d="M89.46,81.58l1.83,6.97c0.09,0.34-0.17,0.68-0.52,0.68h-0.7c-0.16,0-0.65-0.01-0.76-0.14l-5.63-7.36"/>
<line class="st5" x1="47.85" y1="32.57" x2="49.22" y2="32.57"/>
<line class="st5" x1="52.14" y1="32.57" x2="58.31" y2="32.57"/>
<line class="st5" x1="68.75" y1="51.86" x2="70.13" y2="51.86"/>
<line class="st5" x1="73.04" y1="51.86" x2="79.21" y2="51.86"/>
<line class="st5" x1="26.12" y1="89.63" x2="38.84" y2="89.63"/>
<line class="st5" x1="41.75" y1="89.63" x2="46.64" y2="89.63"/>
<line class="st5" x1="92.43" y1="89.23" x2="97.31" y2="89.23"/>
</svg>
