<?xml version="1.0" encoding="utf-8"?>
<!-- Generator: Adobe Illustrator 25.0.1, SVG Export Plug-In . SVG Version: 6.00 Build 0)  -->
<svg version="1.1" id="Vrstva_1" xmlns="http://www.w3.org/2000/svg" xmlns:xlink="http://www.w3.org/1999/xlink" x="0px" y="0px"
	 viewBox="0 0 205 60" style="enable-background:new 0 0 205 60;" xml:space="preserve">
<style type="text/css">
	.st0{fill:#323232;}
	.st1{fill:#9A0000;}
</style>
<g>
	<path class="st0" d="M103.24,34c-0.03,0.58-0.29,1.01-0.82,1.22c-0.35,0.14-0.72,0.23-1.09,0.26c-0.67,0.06-1.34,0.1-2,0.1
		c-5.52,0.03-11.04,0.07-16.56,0.08c-6.83,0.01-13.65,0-20.48-0.01c-0.38,0-0.76,0-1.12-0.08c-0.52-0.12-0.95-0.43-1.32-0.82
		c-0.34-0.36-0.64-0.75-0.99-1.1c-0.22-0.22-0.43-0.44-0.65-0.66C50.45,25.11,42.7,17.23,34.96,9.34c-0.16-0.17-0.33-0.33-0.52-0.52
		c-0.11-0.11-0.3-0.11-0.41,0C33.82,9,33.66,9.15,33.51,9.3C25.58,17.2,17.66,25.1,9.73,33c-0.08,0.08-0.16,0.16-0.24,0.24
		C8.98,33.75,8.5,34.3,7.98,34.8c-0.35,0.34-0.72,0.68-1.14,0.94c-0.83,0.53-1.74,0.6-2.68,0.27C3.08,35.64,2.2,34.42,2.59,33
		c0.16-0.6,0.44-1.14,0.83-1.61c0.22-0.27,0.46-0.52,0.71-0.77c9.35-9.47,18.71-18.93,28.06-28.4c0.21-0.21,0.4-0.42,0.62-0.62
		c0.89-0.85,1.96-0.85,2.86,0c2.43,2.29,4.85,4.59,7.28,6.89c0.04,0.04,0.09,0.08,0.13,0.12c0.39,0.5,0.9,0.62,1.53,0.61
		c5.92-0.05,11.83-0.08,17.75-0.11c0.16,0,0.3-0.13,0.3-0.3V1.26c0-0.16,0.13-0.3,0.3-0.3h9.82c0.16,0,0.29,0.13,0.3,0.29l0.15,7.59
		c0,0.16,0.13,0.29,0.3,0.29c2.17,0.01,4.34,0.02,6.51,0.03c0.81,0,1.63,0.01,2.44,0.01c1.23,0.01,1.14-0.04,1.92,0.88
		c4.22,5.03,8.45,10.05,12.67,15.08c1.57,1.87,3.14,3.74,4.71,5.6c0.47,0.56,0.88,1.15,1.18,1.82c0.06,0.15,0.12,0.29,0.16,0.44
		C103.21,33.32,103.25,33.65,103.24,34z"/>
	<g>
		<path d="M102.48,39.95c0.03,0.18,0.07,0.29,0.06,0.4c-0.17,4.82-0.22,9.64-0.2,14.46c0,0.08-0.05,0.16-0.09,0.28
			c-0.1,0.03-0.2,0.09-0.31,0.09c-0.99,0-1.97-0.01-2.96-0.01c-0.29,0-0.5-0.12-0.67-0.33c-0.14-0.18-0.29-0.37-0.43-0.55
			c-1.63-2.15-3.26-4.31-4.9-6.46c-0.19-0.25-0.39-0.48-0.58-0.71c-0.27,0.12-0.21,0.31-0.21,0.47c0.02,1.28,0.04,2.56,0.06,3.83
			c0.02,0.96,0.03,1.92,0.04,2.88c0,0.26-0.03,0.51-0.05,0.8c-0.73,0.17-1.42,0.08-2.11,0.09c-0.69,0.01-1.39,0.03-2.11-0.03
			c-0.04-0.25-0.1-0.44-0.1-0.63c0-0.55,0.01-1.1,0.04-1.65c0.22-3.54,0.18-7.08,0.02-10.63c-0.02-0.55-0.04-1.1-0.05-1.65
			c0-0.17,0.05-0.33,0.09-0.55c0.42-0.03,0.82-0.05,1.22-0.09c0.41-0.04,0.81-0.09,1.21-0.14c0.4-0.05,0.8-0.12,1.24-0.18
			c0.25,0.31,0.49,0.59,0.72,0.89c1.65,2.25,3.3,4.49,4.95,6.74c0.17,0.23,0.35,0.46,0.55,0.68c0.07,0.07,0.19,0.1,0.3,0.15
			c0.21-0.22,0.16-0.47,0.16-0.68c-0.03-1.25-0.07-2.5-0.11-3.75c-0.03-0.99-0.07-1.97-0.1-2.96c0-0.2,0.04-0.39,0.06-0.62
			c0.48-0.16,0.95-0.09,1.4-0.12c0.46-0.03,0.93-0.05,1.39-0.06C101.49,39.9,101.95,39.81,102.48,39.95z"/>
		<path d="M110.12,49.27c-0.37,0.17-0.73,0.34-1.09,0.51c0,0.63-0.01,1.21,0,1.79c0.01,0.61,0.05,1.22,0.07,1.83
			c0.02,0.57,0.08,1.15-0.05,1.76c-1.47,0.2-2.88,0.22-4.23,0.02c-0.27-0.22-0.23-0.47-0.22-0.69c0.03-1.19,0.04-2.38,0.11-3.57
			c0.13-2.18,0.11-4.35,0.01-6.53c-0.06-1.28-0.08-2.55-0.1-3.83c0-0.19,0.04-0.39,0.06-0.58c0.13-0.04,0.21-0.09,0.29-0.09
			c1.33,0.01,2.66,0.03,3.99,0.04c0.22,0.18,0.17,0.43,0.16,0.66c-0.03,0.93-0.08,1.86-0.12,2.78c-0.02,0.49-0.03,0.99-0.03,1.48
			c0,0.2,0.01,0.41,0.05,0.61c0.05,0.28,0.27,0.46,0.56,0.45c0.88-0.03,1.68-0.28,2.17-1.06c0.34-0.54,0.61-1.12,0.86-1.7
			c0.32-0.78,0.59-1.58,0.88-2.37c0.05-0.14,0.11-0.27,0.15-0.41c0.12-0.36,0.37-0.5,0.73-0.48c0.12,0,0.23,0.01,0.35,0.01
			c0.81,0.01,1.62,0.01,2.44,0.02c0.22,0,0.45,0.03,0.73,0.05c-0.02,0.29,0,0.52-0.06,0.73c-0.39,1.4-0.85,2.77-1.54,4.06
			c-0.49,0.93-1.09,1.78-2.01,2.36c-0.1,0.06-0.2,0.11-0.32,0.18c0.2,0.35,0.33,0.6,0.48,0.84c0.97,1.62,1.95,3.23,2.9,4.86
			c0.23,0.4,0.43,0.83,0.59,1.26c0.21,0.57,0.01,0.91-0.6,0.98c-1.16,0.14-2.32,0.12-3.47-0.06c-0.25-0.04-0.42-0.18-0.54-0.39
			c-0.11-0.2-0.23-0.41-0.34-0.61c-0.73-1.32-1.46-2.64-2.19-3.96C110.62,49.89,110.45,49.55,110.12,49.27z"/>
		<path d="M118.46,55.07c-0.13-0.36,0.05-0.65,0.15-0.94c0.59-1.67,1.19-3.33,1.79-5c1.05-2.89,2.11-5.77,3.16-8.66
			c0.1-0.27,0.21-0.53,0.33-0.8c1.29,0,2.53,0,3.75,0c0.33,0.19,0.41,0.51,0.53,0.8c0.56,1.37,1.11,2.74,1.65,4.12
			c1.19,3.09,2.36,6.17,3.53,9.27c0.14,0.37,0.33,0.74,0.3,1.21c-0.19,0.06-0.37,0.15-0.56,0.16c-1.13,0.1-2.26,0.09-3.39,0
			c-0.48-0.04-0.73-0.26-0.83-0.73c-0.11-0.48-0.2-0.97-0.47-1.37c-0.86-0.25-3.99-0.26-4.94-0.03c-0.3,0.31-0.32,0.73-0.43,1.11
			c-0.29,0.97-0.31,1.01-1.3,1.05c-0.7,0.03-1.39,0.03-2.09,0.02C119.23,55.28,118.82,55.27,118.46,55.07z M127.14,49.12
			c-0.01-0.21,0.01-0.45-0.05-0.66c-0.31-1.11-0.59-2.22-1.1-3.35c-0.12,0.22-0.23,0.36-0.28,0.51c-0.36,1.06-0.71,2.13-1.05,3.2
			c-0.03,0.1,0.02,0.22,0.03,0.32C125.52,49.34,126.43,49.34,127.14,49.12z"/>
		<path d="M79.73,49.4c0,0.46-0.01,0.92,0,1.38c0.01,0.36,0.23,0.61,0.57,0.68c0.45,0.09,0.92,0.17,1.38,0.16
			c1.25-0.03,2.49-0.11,3.74-0.16c0.31-0.01,0.63-0.1,0.98,0.08c0.17,0.72-0.05,1.42-0.15,2.12c-0.08,0.56-0.04,1.18-0.48,1.63
			c-3.46-0.04-6.91-0.09-10.31-0.13c-0.26-0.21-0.23-0.45-0.22-0.68c0.05-1.39,0.08-2.79,0.17-4.18c0.13-1.95,0.1-3.89,0.02-5.83
			c-0.06-1.36-0.11-2.73-0.16-4.09c0-0.14,0.04-0.28,0.06-0.46c0.19-0.02,0.36-0.04,0.52-0.05c0.15-0.01,0.29,0,0.44,0
			c2.73,0.11,5.46,0.11,8.19,0c0.29-0.01,0.58-0.01,0.87,0.03c0.25,0.03,0.42,0.18,0.48,0.44c0.03,0.14,0.07,0.28,0.09,0.43
			c0.07,0.81,0.14,1.62,0.2,2.43c0.01,0.08-0.03,0.17-0.04,0.24c-0.2,0.21-0.44,0.14-0.67,0.13c-1.51-0.08-3.02-0.15-4.52-0.22
			c-0.26-0.01-0.52,0.01-0.78,0.06c-0.21,0.04-0.37,0.19-0.38,0.42c-0.01,0.41-0.02,0.82,0.03,1.21c0.05,0.37,0.27,0.53,0.66,0.58
			c0.06,0.01,0.12,0.01,0.17,0.01c1.42-0.04,2.84-0.08,4.27-0.13c0.28-0.01,0.57-0.13,0.88,0.06c0.15,0.39-0.03,0.78-0.05,1.17
			c-0.03,0.43-0.05,0.87-0.1,1.3c-0.05,0.4,0.04,0.81-0.17,1.25c-0.19,0-0.38,0-0.58,0c-1.42-0.04-2.84-0.08-4.27-0.11
			C80.31,49.17,80.04,49.14,79.73,49.4z"/>
		<path d="M63.15,40.06c0.17-0.08,0.22-0.12,0.27-0.13c0.05-0.02,0.11-0.03,0.17-0.02c1.28,0.1,2.55,0.04,3.83,0.01
			c0.05,0,0.1,0.05,0.21,0.1c0.01,0.19,0.04,0.41,0.03,0.64c-0.07,1.6-0.18,3.19-0.22,4.78c-0.05,1.89-0.05,3.77-0.07,5.66
			c0,0.19,0.06,0.39,0.09,0.54c0.32,0.18,0.62,0.12,0.91,0.11c1.34-0.05,2.67-0.11,4-0.15c0.51-0.01,1.03-0.13,1.53,0.05
			c0.21,0.89,0.07,2.68-0.3,3.66c-0.2,0.02-0.42,0.07-0.64,0.07c-2.93-0.05-5.86-0.09-8.79-0.15c-0.28,0-0.58,0.04-0.84-0.14
			c-0.2-0.26-0.14-0.56-0.14-0.85c0.01-1.1,0.02-2.21,0.06-3.31c0.1-2.99-0.05-5.98-0.1-8.97C63.14,41.33,63.15,40.69,63.15,40.06z"
			/>
	</g>
	<g>
		<path d="M147.8,39.87c1.29-0.13,2.56-0.26,3.83-0.38c0.05,0,0.1,0.04,0.21,0.09c0,0.2,0.03,0.42,0.01,0.64
			c-0.3,3.36-0.34,6.72-0.29,10.09c0.03,1.48,0.15,2.95,0.23,4.43c0.01,0.11,0,0.22,0,0.38c-0.18,0.04-0.34,0.1-0.51,0.11
			c-0.81,0.03-1.62,0.05-2.44,0.05c-0.22,0-0.45-0.07-0.7-0.12c-0.06-0.35-0.11-0.65-0.18-1.02c-0.17,0.1-0.33,0.17-0.45,0.27
			c-1.64,1.42-4.81,1.24-6.43-0.75c-0.58-0.71-0.96-1.51-1.13-2.42c-0.25-1.28-0.21-2.55,0.26-3.77c0.57-1.49,1.57-2.57,3.14-3.01
			c0.79-0.22,1.6-0.26,2.41-0.09c0.49,0.1,0.93,0.32,1.31,0.65c0.15,0.13,0.3,0.24,0.44,0.35c0.23-0.15,0.17-0.34,0.17-0.49
			c-0.01-1.36-0.03-2.73-0.04-4.09C147.67,40.5,147.61,40.21,147.8,39.87z M143.81,49.69c0.01,0.17,0.01,0.29,0.03,0.41
			c0.09,0.86,0.7,1.61,1.44,1.77c0.92,0.2,1.75-0.17,2.22-0.98c0.35-0.62,0.4-1.27,0.16-1.93c-0.31-0.85-1.15-1.41-2.02-1.36
			c-0.85,0.05-1.5,0.59-1.73,1.46C143.84,49.29,143.83,49.52,143.81,49.69z"/>
		<path d="M180.01,54.7c0.34-0.1,0.55,0.09,0.78,0.19c0.65,0.28,1.31,0.46,2.01,0.56c0.78,0.11,1.5-0.05,2.19-0.41
			c0.66-0.35,1.01-0.85,0.83-1.68c-0.13,0.05-0.27,0.08-0.37,0.15c-2.46,1.65-6.61,0.5-7.06-3.66c-0.08-0.72-0.04-1.45,0.16-2.16
			c0.6-2.2,2.53-3.54,4.79-3.31c0.68,0.07,1.29,0.33,1.79,0.81c0.16,0.15,0.25,0.41,0.56,0.44c0.07-0.33,0.13-0.67,0.19-0.98
			c0.69-0.14,2.29,0,3.8,0.31c0.19,0.18,0.15,0.42,0.15,0.65c-0.02,0.61-0.05,1.22-0.06,1.83c-0.02,1.57-0.02,3.14-0.03,4.71
			c0,0.78,0,1.57-0.19,2.34c-0.11,0.42-0.22,0.84-0.39,1.24c-0.36,0.87-0.99,1.49-1.85,1.88c-0.67,0.3-1.37,0.46-2.1,0.54
			c-1.58,0.17-3.13-0.05-4.66-0.42c-0.31-0.07-0.6-0.22-0.88-0.36c-0.16-0.08-0.26-0.25-0.22-0.44
			C179.6,56.17,179.7,55.39,180.01,54.7z M185.98,49.43c-0.04-0.26-0.05-0.46-0.1-0.66c-0.3-1.16-1.6-1.75-2.61-1.18
			c-0.63,0.36-0.94,0.93-1.01,1.63c-0.08,0.92,0.55,1.8,1.44,2.03c0.83,0.21,1.69-0.21,2.06-1.05
			C185.88,49.95,185.92,49.66,185.98,49.43z"/>
		<path d="M195.63,55.1c-1.16,0.26-2.89,0.22-3.72-0.04c-0.18-0.26-0.1-0.55-0.11-0.84c0-1.63,0-3.25,0-4.88
			c0-1.19-0.09-2.37-0.34-3.55c-0.04-0.2-0.05-0.4-0.08-0.64c0.62-0.34,1.31-0.26,1.95-0.37c0.65-0.11,1.29-0.35,2.03-0.25
			c0.05,0.22,0.09,0.44,0.14,0.66c0.05,0.19,0.1,0.38,0.16,0.59c0.4-0.07,0.66-0.31,0.95-0.48c0.61-0.35,1.21-0.68,1.91-0.82
			c1.02-0.21,1.96-0.02,2.83,0.52c0.68,0.43,1.05,1.06,1.11,1.87c0.01,0.17,0.01,0.35,0.01,0.52c0.01,2.29,0.01,4.59,0.01,6.88
			c0,0.28,0.07,0.58-0.17,0.91c-1.16,0.13-2.36,0.13-3.51-0.02c-0.3-0.34-0.21-0.67-0.21-0.98c0-1.57,0.01-3.13,0-4.7
			c0-0.29-0.02-0.58-0.09-0.86c-0.17-0.66-0.73-1-1.39-0.87c-0.44,0.09-0.81,0.3-1.13,0.62c-0.19,0.19-0.3,0.42-0.31,0.7
			c0,0.2,0,0.41,0,0.61c0,1.51,0,3.02,0,4.53C195.67,54.5,195.65,54.78,195.63,55.1z"/>
		<path d="M156.8,51.23c0.13,0.51,0.49,0.78,0.93,0.98c0.87,0.38,1.75,0.38,2.63,0.05c0.51-0.2,0.99-0.47,1.54-0.74
			c0.09,0.09,0.24,0.19,0.32,0.32c0.41,0.6,0.72,1.25,0.97,1.89c-0.07,0.37-0.31,0.56-0.55,0.72c-0.36,0.24-0.73,0.5-1.13,0.64
			c-1.7,0.61-3.42,0.65-5.11-0.01c-1.88-0.74-2.97-2.18-3.26-4.17c-0.13-0.86-0.1-1.73,0.1-2.6c0.63-2.69,2.77-4.27,5.53-4.18
			c2.57,0.09,4.8,2.41,4.79,5.14c0,0.12,0,0.23-0.02,0.35c-0.09,0.61-0.32,0.86-0.95,0.95c-0.69,0.1-1.38,0.17-2.08,0.23
			c-0.93,0.09-1.85,0.15-2.78,0.23C157.42,51.05,157.09,51.01,156.8,51.23z M159.66,48.65c-0.01-1.06-0.68-1.76-1.62-1.72
			c-0.43,0.02-0.78,0.2-1.04,0.53c-0.33,0.42-0.52,0.89-0.35,1.49c0.19,0.03,0.39,0.1,0.57,0.07
			C158.03,48.91,158.88,48.95,159.66,48.65z"/>
		<path d="M169.63,43.83c0.64,0.71,1.02,1.49,1.41,2.27c0.06,0.11,0.03,0.27,0.04,0.48c-0.32,0.01-0.6,0.03-0.88,0.03
			c-0.36,0.01-0.69,0.11-0.98,0.32c-0.47,0.36-0.58,0.88-0.25,1.38c0.16,0.24,0.36,0.45,0.55,0.67c0.26,0.31,0.56,0.6,0.79,0.93
			c0.75,1.08,0.78,2.22,0.21,3.38c-0.1,0.21-0.24,0.41-0.41,0.56c-1.03,0.9-2.2,1.5-3.56,1.7c-0.46,0.07-0.79-0.06-1.04-0.44
			c-0.45-0.67-0.95-1.32-1.23-2.16c0.24-0.08,0.45-0.16,0.67-0.21c0.31-0.07,0.63-0.11,0.94-0.19c0.19-0.05,0.39-0.13,0.56-0.24
			c0.41-0.26,0.56-0.68,0.37-1.13c-0.1-0.24-0.25-0.46-0.41-0.66c-0.27-0.34-0.56-0.67-0.86-0.98c-1.06-1.14-1.05-2.87,0.08-4.02
			C166.7,44.42,168.02,43.84,169.63,43.83z"/>
		<path d="M172.73,44.97c0.11-0.06,0.16-0.11,0.21-0.11c1.27,0,2.54,0.01,3.82,0.02c0.05,0,0.1,0.05,0.15,0.07
			c0.02,0.02,0.04,0.04,0.06,0.06c0.01,0.02,0.02,0.06,0.02,0.08c0,0.11,0.02,0.23,0,0.35c-0.38,3.18-0.09,6.37-0.21,9.55
			c0,0.02-0.03,0.05-0.05,0.07c-0.83,0.26-2.52,0.28-3.69,0.05c-0.22-0.24-0.15-0.54-0.15-0.82c0.01-0.98,0.04-1.97,0.06-2.96
			c0.04-2.03-0.01-4.06-0.23-6.08C172.7,45.17,172.72,45.09,172.73,44.97z"/>
		<path d="M177.02,42.06c0,1.08-0.45,1.62-1.44,1.84c-0.53,0.12-1.04,0.1-1.54-0.07c-0.67-0.23-1.15-0.66-1.26-1.41
			c-0.12-0.8,0.13-1.44,0.82-1.87c0.84-0.52,1.71-0.53,2.55-0.02C176.74,40.89,177.06,41.42,177.02,42.06z"/>
	</g>
	<g>
		<path class="st1" d="M33.14,36.42v10.76c0,0.15-0.12,0.27-0.27,0.27H22.53c-0.32,0-0.58-0.25-0.6-0.57l-0.21-3.59
			c0-0.24-0.15-0.45-0.37-0.53c-1.4-0.53-2.33-1.91-2.26-3.39c0.02-0.45,0.13-0.89,0.31-1.29c0.56-1.2,1.8-1.92,3.13-1.92h10.34
			C33.02,36.16,33.14,36.28,33.14,36.42z"/>
		<path class="st1" d="M52.42,41.86c-0.37-0.09-0.78-0.13-1.23-0.08c-0.02,0-0.03,0-0.05,0c-1.59,0.18-2.76,1.58-2.76,3.18v3.88
			H33.94H19.5v-3.88c0-1.6-1.17-3-2.76-3.18c-0.02,0-0.03,0-0.05,0c-0.47-0.05-0.89,0-1.28,0.1c-1.39,0.35-2.33,1.64-2.33,3.07v8.98
			c0,0.82,0.66,1.48,1.48,1.48h2.67c0.26,0,0.46,0.21,0.46,0.46l0.21,2.83c0.01,0.2,0.18,0.36,0.38,0.36h1.42
			c0.2,0,0.37-0.15,0.38-0.36l0.21-2.9c0-0.25,0.2-0.45,0.45-0.45h13.19h13.19c0.25,0,0.45,0.2,0.45,0.45l0.21,2.9
			c0.01,0.2,0.18,0.36,0.38,0.36h1.42c0.2,0,0.37-0.15,0.38-0.36l0.21-2.83c0-0.26,0.21-0.46,0.46-0.46h2.67
			c0.82,0,1.48-0.66,1.48-1.48v-8.96C54.8,43.5,53.83,42.19,52.42,41.86z"/>
		<path class="st1" d="M34.74,36.42v10.76c0,0.15,0.12,0.27,0.27,0.27h10.34c0.32,0,0.58-0.25,0.6-0.57l0.21-3.59
			c0-0.24,0.15-0.45,0.37-0.53c1.4-0.53,2.33-1.91,2.26-3.39c-0.02-0.45-0.13-0.89-0.31-1.29c-0.56-1.2-1.8-1.92-3.13-1.92H35.01
			C34.86,36.16,34.74,36.28,34.74,36.42z"/>
	</g>
	<path d="M2.59,33h7.14c-0.08,0.08-0.16,0.16-0.24,0.24C8.98,33.75,8.5,34.3,7.98,34.8c-0.35,0.34-0.72,0.68-1.14,0.94
		c-0.83,0.53-1.74,0.6-2.68,0.27C3.08,35.64,2.2,34.42,2.59,33z"/>
	<path d="M103.24,34c-0.03,0.58-0.29,1.01-0.82,1.22c-0.35,0.14-0.72,0.23-1.09,0.26c-0.67,0.06-1.34,0.1-2,0.1
		c-5.52,0.03-11.04,0.07-16.56,0.08c-6.83,0.01-13.65,0-20.48-0.01c-0.38,0-0.76,0-1.12-0.08c-0.52-0.12-0.95-0.43-1.32-0.82
		c-0.34-0.36-0.64-0.75-0.99-1.1c-0.22-0.22-0.43-0.44-0.65-0.66h44.92C103.21,33.32,103.25,33.65,103.24,34z"/>
</g>
</svg>
