<?xml version="1.0" encoding="utf-8"?>
<!-- Generator: Adobe Illustrator 25.0.1, SVG Export Plug-In . SVG Version: 6.00 Build 0)  -->
<svg version="1.1" id="Vrstva_1" xmlns="http://www.w3.org/2000/svg" xmlns:xlink="http://www.w3.org/1999/xlink" x="0px" y="0px"
	 viewBox="0 0 100 100" style="enable-background:new 0 0 100 100;" xml:space="preserve">
<g>
	<path d="M1,52.72c0.19-0.36,0.32-0.75,0.57-1.06c0.42-0.53,0.94-0.78,1.68-0.64c0.37,0.07,0.86-0.12,1.21-0.34
		C6,49.74,6.92,48.35,7.33,46.6c0.6-2.56-1.36-5.34-3.24-5.84c-0.52-0.14-1.06-0.22-1.6-0.29c-0.77-0.1-0.89-0.19-1.03-0.95
		c-0.23-1.22-0.04-2.42,0.28-3.59c0.62-2.27,1.61-4.38,2.9-6.36c0.67-1.03,1.09-1.11,2.22-0.59c0.85,0.4,1.68,0.88,2.58,1.08
		c3.2,0.71,6.39-1.93,6.41-5.23c0.01-1.39-0.33-2.66-1.34-3.7c-0.46-0.47-0.46-0.99-0.04-1.59c0.15-0.22,0.34-0.43,0.55-0.6
		c2.76-2.08,5.82-3.55,9.15-4.43c0.91-0.24,1.9,0.25,2.37,1.06c0.08,0.13,0.14,0.3,0.14,0.46c0.01,1.57,0.72,2.76,1.98,3.64
		c1.4,0.98,2.99,1.41,4.66,1.36c1.36-0.04,2.42-0.83,3.22-1.93c0.64-0.88,0.97-1.88,1.07-2.96c0.02-0.2,0.12-0.42,0.25-0.56
		c0.84-0.87,2.06-1.11,3.19-0.62c2.4,1.03,4.79,2.08,7.18,3.12c1.09,0.48,1.48,1.53,0.95,2.62c-0.1,0.21-0.23,0.4-0.38,0.57
		c-0.68,0.77-0.96,1.68-0.93,2.67c0.03,0.87,0.09,1.74,0.24,2.6c0.18,1.06,0.82,1.86,1.71,2.44c1.57,1,3.27,1.24,5.05,0.73
		c0.49-0.14,0.95-0.46,1.38-0.76c0.57-0.39,1.13-0.76,1.85-0.78c0.67-0.02,1.21,0.19,1.58,0.8c0.52,0.83,1.08,1.63,1.64,2.47
		c-4.4,4.26-8.8,8.51-13.24,12.8c-0.45-2.05-1.11-3.94-2.01-5.74c-0.81-1.63-1.81-3.13-3.06-4.46c-2.31-2.45-5.15-3.81-8.49-4.15
		c-3.29-0.34-6.47,0.08-9.44,1.58c-4.44,2.24-7.09,5.9-8.23,10.69c-0.59,2.47-0.77,4.98-0.21,7.48c0.66,2.96,2.31,5.31,4.59,7.24
		c2.71,2.3,5.86,3.78,9.25,4.77c0.14,0.04,0.28,0.08,0.46,0.14c-2.23,1.38-3.09,3.63-3.92,5.88c-0.98,2.67-1.57,5.46-2.03,8.26
		c-0.11,0.64-0.13,0.72-0.77,0.56c-1.12-0.28-2.24-0.57-3.32-0.96c-1.56-0.57-3.05-1.32-4.32-2.42c-0.36-0.31-0.68-0.67-0.95-1.06
		c-0.4-0.56-0.45-1.16-0.17-1.81c0.77-1.83,0.69-3.66-0.08-5.47c-0.96-2.24-3.38-3.53-5.88-2.82c-0.86,0.24-1.65,0.61-2.39,1.12
		c-0.16,0.11-0.43,0.15-0.62,0.11c-0.8-0.19-1.39-0.72-1.89-1.35c-0.98-1.2-1.58-2.6-2.09-4.04c-0.39-1.09-0.71-2.2-1.07-3.29
		C1.3,54.17,1.14,53.86,1,53.54C1,53.26,1,52.99,1,52.72z"/>
	<g>
		<path d="M92.61,29.12C76.5,45.06,60.41,60.97,44.29,76.91c-3.06-4.83-6.71-9.03-11.84-11.82c0.11-0.12,0.2-0.23,0.3-0.33
			c15.91-15.89,31.82-31.78,47.72-47.67c0.22-0.22,0.38-0.25,0.66-0.11c3,1.55,5.48,3.72,7.64,6.29
			C90.28,25.05,91.54,27,92.61,29.12z"/>
		<path d="M94.03,27.25c-2.48-5.23-6.34-9.08-11.35-11.85c1.13-1.24,2.24-2.47,3.36-3.7c0.37-0.4,0.75-0.79,1.09-1.21
			c0.2-0.25,0.37-0.25,0.65-0.14c4.25,1.75,7.5,4.64,9.89,8.54c0.45,0.73,0.81,1.51,1.2,2.27c0.06,0.12,0.1,0.25,0.12,0.38
			c0.06,0.48-0.05,0.86-0.43,1.22C97.03,24.22,95.55,25.72,94.03,27.25z"/>
		<path d="M33.42,81.25c-1.37-2.02-2.78-3.95-5.23-4.77c0.94-3.29,1.88-6.58,2.84-9.95c5.3,2.64,9.27,6.52,11.86,11.88
			C39.7,79.36,36.56,80.3,33.42,81.25z"/>
		<path d="M27.67,77.4c1.91,1,3.6,2.1,4.3,4.29c-1.76,0.48-3.48,0.95-5.25,1.44C27.03,81.21,27.34,79.36,27.67,77.4z"/>
	</g>
</g>
</svg>
